<?xml version="1.0" encoding="UTF-8"?>
<svg version="1.1" xmlns="http://www.w3.org/2000/svg" width="500" height="500">
<path d="M0 0 C165 0 330 0 500 0 C500 165 500 330 500 500 C335 500 170 500 0 500 C0 335 0 170 0 0 Z " fill="#1649FE" transform="translate(0,0)"/>
<path d="M0 0 C17.54608427 0 30.91313619 1.93266667 43.9375 14.0625 C55.07387713 25.98729321 58.28397615 39.48964558 58.30496025 55.4104023 C58.3086592 57.66886953 58.32547856 59.92691131 58.34571838 62.18528748 C58.40080902 68.60057653 58.4318209 75.01592506 58.45629883 81.43139648 C58.47222432 85.37002348 58.50248556 89.30834226 58.54106331 93.24680901 C58.55265911 94.73980361 58.55864318 96.23285339 58.55874443 97.72589302 C58.55893777 99.81701804 58.57729343 101.90729817 58.59936523 103.99829102 C58.60443588 105.18439468 58.60950653 106.37049835 58.61473083 107.59254456 C59.35727812 114.15989287 61.95528225 118.67401892 67 123 C70.94955691 125.97868535 74.99234608 128.82449076 79.05078125 131.65234375 C84.75493556 135.73957243 90.03561437 139.63929977 91.62890625 146.84375 C91.59603516 148.15859375 91.59603516 148.15859375 91.5625 149.5 C91.56378906 150.3765625 91.56507813 151.253125 91.56640625 152.15625 C90.12679019 159.38411544 85.55292321 163.80259844 80.25 168.5 C79.62746338 169.06533447 79.00492676 169.63066895 78.36352539 170.21313477 C75.09623431 173.16990346 71.78094742 176.06712163 68.4375 178.9375 C64.41947575 182.41231496 60.71306816 185.86079553 59 191 C58.90243244 193.09315012 58.86452538 195.18925482 58.8581543 197.28466797 C58.85111984 198.58387177 58.84408539 199.88307556 58.83683777 201.22164917 C58.83411393 202.26427729 58.83411393 202.26427729 58.83133507 203.3279686 C58.8241398 205.51619653 58.80844541 207.70420405 58.78999329 209.8923645 C58.73770555 216.11440787 58.68968606 222.33633601 58.67407227 228.55859375 C58.66388738 232.36839038 58.63429263 236.17763874 58.59275246 239.98721695 C58.58057476 241.42779481 58.57529655 242.86845065 58.57755089 244.30907822 C58.5968383 260.67587888 54.64318532 274.13308918 43.375 286.25 C38.15500059 291.25020996 32.63616672 294.24553628 26 297 C25.28585937 297.33902344 24.57171875 297.67804688 23.8359375 298.02734375 C16.32030567 301.17578411 7.96749198 300.18820847 0 300 C0 289.11 0 278.22 0 267 C3.96 266.67 7.92 266.34 12 266 C16.94905523 263.83478834 20.00305382 261.49541927 23 257 C24.11508818 253.65473545 24.13131811 251.13300944 24.1418457 247.60766602 C24.14532013 246.96326065 24.14879456 246.31885529 24.15237427 245.65492249 C24.15972245 244.25538049 24.16507283 242.8558269 24.16866493 241.45627022 C24.17585684 239.23051284 24.19154801 237.00497257 24.21000671 234.77928162 C24.26231579 228.45062426 24.31033419 222.12208128 24.32592773 215.79321289 C24.33609852 211.9185857 24.3656575 208.04449967 24.40724754 204.17008781 C24.41944316 202.70356305 24.42470005 201.2369614 24.42244911 199.77038765 C24.40371331 183.56362839 28.82682987 169.99071917 40 158 C41.8171158 156.38822991 43.65825945 154.82419018 45.546875 153.296875 C47.13287611 152.04219297 47.13287611 152.04219297 48 150 C47.40832031 149.72027344 46.81664062 149.44054687 46.20703125 149.15234375 C35.46543346 143.54389889 29.67969696 132.09844083 26 121 C24.85812244 117.36003348 24.86229414 113.92570658 24.84228516 110.12353516 C24.83466408 109.09836037 24.83466408 109.09836037 24.82688904 108.05247498 C24.81621184 106.57218316 24.80758133 105.09187547 24.80076981 103.61156082 C24.78894404 101.26556322 24.76948222 98.91974666 24.74765015 96.57382202 C24.6861555 89.90507049 24.63201065 83.23633916 24.59863281 76.56738281 C24.5776494 72.48422436 24.54231955 68.40139935 24.49787521 64.31843185 C24.483747 62.7660045 24.47499996 61.2135182 24.47182083 59.66102982 C24.46689367 57.48541782 24.44369182 55.310686 24.41650391 53.13525391 C24.40841705 51.89933502 24.4003302 50.66341614 24.39199829 49.39004517 C23.80735329 44.33396964 22.20663613 41.08891553 18.4375 37.6875 C11.8025893 33.09410029 11.39925542 34.81423253 0 34 C0 22.78 0 11.56 0 0 Z " fill="#EDEEEF" transform="translate(360,100)"/>
<path d="M0 0 C0 11.22 0 22.44 0 34 C-4.62 34.33 -9.24 34.66 -14 35 C-18.34488828 36.94770854 -20.85538435 39.3726615 -23.16409302 43.55859375 C-24.90322867 48.63803052 -24.50877699 54.1158024 -24.45528984 59.43054199 C-24.43319317 61.7291707 -24.43718943 64.02649796 -24.44776917 66.32519531 C-24.46932417 72.03862312 -24.45229801 77.75175733 -24.42626953 83.46514893 C-24.40465461 88.29188084 -24.40322882 93.11776843 -24.42918587 97.94448853 C-24.43346358 100.18191387 -24.40911266 102.41777791 -24.38365173 104.6550293 C-24.36702187 119.2230753 -28.03935917 131.90907369 -38 143 C-40.88815438 145.81639899 -43.86246092 148.46527514 -47 151 C-46.0409375 151.928125 -46.0409375 151.928125 -45.0625 152.875 C-44.03849579 153.91354972 -43.0182572 154.95581495 -42 156 C-41.29875 156.70511719 -40.5975 157.41023437 -39.875 158.13671875 C-28.18970041 170.39444011 -24.7019175 182.66929554 -24.75617027 199.19464111 C-24.76182204 201.41558841 -24.75251135 203.63602474 -24.7389679 205.85693359 C-24.7020765 212.16571532 -24.68329463 218.47431618 -24.69458008 224.78320312 C-24.70045622 228.65713209 -24.68205868 232.53033328 -24.64869118 236.40411377 C-24.6407825 237.87117477 -24.64195223 239.33831605 -24.65271568 240.80535889 C-24.77648527 251.20013549 -24.77648527 251.20013549 -20.55964661 260.49755859 C-14.20825043 266.6159963 -9.43189938 265.6525858 0 267 C0 277.89 0 288.78 0 300 C-17.71758113 300.57153488 -30.86490732 297.70241979 -44.3125 285.25 C-53.34328785 275.68254647 -58.12066565 262.53851378 -58.12597656 249.50073242 C-58.12978333 248.20556198 -58.13359009 246.91039154 -58.13751221 245.57597351 C-58.13770607 244.88857275 -58.13789993 244.20117199 -58.13809967 243.4929409 C-58.14153924 240.58164042 -58.1629312 237.67055851 -58.18333054 234.75933552 C-58.22121671 229.34855981 -58.25261817 223.93802345 -58.25048828 218.52709961 C-58.249698 214.7538382 -58.27319381 210.98138724 -58.3123703 207.20833778 C-58.32278017 205.77757734 -58.32439145 204.34672279 -58.31671906 202.91594505 C-58.2675654 192.73388517 -59.35877839 186.85321868 -66.39453125 179.49609375 C-67.19246094 178.81675781 -67.99039063 178.13742187 -68.8125 177.4375 C-69.67875 176.68855469 -70.545 175.93960938 -71.4375 175.16796875 C-72.283125 174.45253906 -73.12875 173.73710937 -74 173 C-75.43981155 171.75266326 -76.87751882 170.50289076 -78.3125 169.25 C-79.2715625 168.41275391 -79.2715625 168.41275391 -80.25 167.55859375 C-90.47355061 158.45324398 -90.47355061 158.45324398 -91.23828125 151.984375 C-91.27501953 150.87835938 -91.27501953 150.87835938 -91.3125 149.75 C-91.36857422 148.65945312 -91.36857422 148.65945312 -91.42578125 147.546875 C-90.18481353 140.12383874 -85.55640187 136.48458752 -79.78320312 132.24804688 C-78.43645508 131.28995117 -78.43645508 131.28995117 -77.0625 130.3125 C-75.28221172 129.01739483 -73.5022537 127.72183552 -71.72265625 126.42578125 C-69.1773847 124.57534953 -66.62713503 122.736073 -64.05859375 120.91796875 C-60.59784673 117.69362949 -59.14437781 114.31022549 -58.62818909 109.62582397 C-58.62915085 108.39626984 -58.63011261 107.1667157 -58.63110352 105.89990234 C-58.62733704 105.21604462 -58.62357056 104.53218689 -58.61968994 103.8276062 C-58.61328466 102.35118348 -58.61356186 100.87471948 -58.61987495 99.39829636 C-58.62904544 97.05029894 -58.61869183 94.70309013 -58.60325623 92.35513306 C-58.56333828 85.68256784 -58.56194036 79.0100672 -58.56420898 72.33740234 C-58.5642605 68.24542185 -58.54488417 64.15386439 -58.51487541 60.06200027 C-58.50417608 57.76877192 -58.51610776 55.47639644 -58.52870178 53.18319702 C-58.48897845 37.69437373 -53.89871428 25.09115642 -43.1875 13.6875 C-30.32507538 1.61508994 -17.64847875 0 0 0 Z " fill="#EDEEEF" transform="translate(141,100)"/>
<path d="M0 0 C0 4.50592154 0 4.50592154 -2.265625 7.3828125 C-2.98298828 8.29740234 -2.98298828 8.29740234 -3.71484375 9.23046875 C-4.22144531 9.85566406 -4.72804688 10.48085937 -5.25 11.125 C-5.98669922 12.07439453 -5.98669922 12.07439453 -6.73828125 13.04296875 C-9.24630021 16.19304056 -11.13434938 18.53993137 -15 20 C-17.2265625 18.98828125 -17.2265625 18.98828125 -19.625 17.3125 C-29.93906556 10.77077772 -40.03267328 9.93465934 -52 11 C-57.41220262 12.44015692 -60.91904431 15.31694736 -64 20 C-66.27489268 24.54978537 -65.78762531 31.30100372 -64.38671875 36.1015625 C-63.42554949 37.95615341 -62.36214722 39.41675062 -61 41 C-60.31744141 41.82177734 -60.31744141 41.82177734 -59.62109375 42.66015625 C-54.58007167 47.79474719 -48.29832338 50.37489842 -41.85424805 53.30541992 C-35.30836133 56.30601157 -29.00889843 59.62797624 -22.75 63.1875 C-21.88157471 63.67436279 -21.01314941 64.16122559 -20.1184082 64.6628418 C-12.86019921 68.83611775 -6.70387563 73.14275433 -2.25 80.375 C-1.69828125 81.24898438 -1.1465625 82.12296875 -0.578125 83.0234375 C3.2001149 90.14972167 4.46541124 95.92628639 4.3125 104 C4.31572266 104.85078125 4.31894531 105.7015625 4.32226562 106.578125 C4.22329532 118.31060513 0.50055807 129.65367063 -7.6875 138.3125 C-22.30817474 151.75679861 -39.65371379 155.79416299 -58.96484375 155.28515625 C-74.9196893 154.55619275 -90.35630771 150.48218965 -104 142 C-97.84965831 125.1070615 -97.84965831 125.1070615 -94 118 C-90.82166979 119.46580526 -88.17656437 121.28523374 -85.375 123.375 C-73.42763358 131.84580633 -60.32330513 133.45141157 -46 132 C-39.3045498 130.15736127 -34.81833208 126.72749812 -31 121 C-28.36134747 115.4128176 -28.2415008 110.07589463 -29 104 C-30.17758875 100.84048732 -31.78393006 98.52449205 -34 96 C-34.43828125 95.49210937 -34.8765625 94.98421875 -35.328125 94.4609375 C-40.6957362 89.17807806 -47.99515771 86.36394712 -54.69091797 83.12695312 C-91.01275315 65.39999275 -91.01275315 65.39999275 -97.41992188 47.2890625 C-98.55232462 42.82045637 -98.53009461 38.33717073 -98.5 33.75 C-98.49033203 32.22028564 -98.49033203 32.22028564 -98.48046875 30.65966797 C-98.2077493 19.4225501 -95.17696434 11.18503617 -87.2890625 3.03125 C-63.52677734 -18.05473683 -26.09276388 -14.88822409 0 0 Z " fill="#FCFCFF" transform="translate(246,175)"/>
<path d="M0 0 C11.22 0 22.44 0 34 0 C34 45.87 34 91.74 34 139 C54.79 139 75.58 139 97 139 C97 146.26 97 153.52 97 161 C65.98 161 34.96 161 3 161 C2.95101563 150.29949219 2.90203125 139.59898437 2.8515625 128.57421875 C2.81617005 121.78840345 2.78028624 115.00259662 2.7421875 108.21679688 C2.68182944 97.45013369 2.62345648 86.68348639 2.578125 75.91674805 C2.545097 68.07442219 2.50520673 60.23216576 2.45720994 52.38991672 C2.43205199 48.24075415 2.41023962 44.091637 2.39665604 39.94241905 C2.38373787 36.02966519 2.36158048 32.11706796 2.33261681 28.20440102 C2.32361668 26.77547535 2.3178687 25.34652452 2.31578636 23.91757202 C2.31240977 21.95080484 2.29566238 19.98407472 2.2784729 18.01737976 C2.27294214 16.9213679 2.26741138 15.82535604 2.26171303 14.69613171 C1.91164148 9.75212656 0.88662483 4.87643655 0 0 Z " fill="#FCFCFF" transform="translate(257,166)"/>
</svg>
